<svg width="88" height="60" viewBox="0 0 88 60" fill="none" xmlns="http://www.w3.org/2000/svg">
<path d="M81.0396 17.9581C81.0396 22.6125 77.2665 26.3858 72.612 26.3858C67.9576 26.3858 64.1836 22.6126 64.1836 17.9581C64.1836 13.3036 67.9574 9.52979 72.612 9.52979C77.2663 9.52979 81.0396 13.3036 81.0396 17.9581Z" fill="white"/>
<path d="M84.1777 34.0668C80.4039 33.2388 76.5142 32.823 72.6208 32.823C71.1123 32.823 69.6022 32.887 68.0987 33.0115C67.3541 33.0733 66.8333 33.7409 66.8743 34.4862C66.8902 34.7783 66.8902 35.0689 66.8715 35.3595C66.5319 39.9161 66.1931 44.5568 65.8543 49.2897C65.6766 51.7032 64.8061 54.0534 63.481 56.0871C63.9406 56.2965 64.4126 56.4533 64.8888 56.5324C67.9232 56.972 71.0468 57.1482 74.1501 57.0655C83.7013 56.4562 86.9155 46.3287 87.4249 38.3952C87.5371 36.6104 85.9602 34.499 84.1775 34.0674L84.1777 34.0668Z" fill="white"/>
<path d="M23.813 17.9581C23.813 22.6125 20.0399 26.3858 15.3854 26.3858C10.7311 26.3858 6.95703 22.6126 6.95703 17.9581C6.95703 13.3036 10.7309 9.52979 15.3854 9.52979C20.0397 9.52979 23.813 13.3036 23.813 17.9581Z" fill="white"/>
<path d="M0.575474 38.4111C0.909268 42.9352 1.28982 46.9538 3.96313 50.7744C6.24637 54.0376 9.76644 56.8166 13.8727 57.0684C16.9272 57.1547 20.055 56.9763 23.1254 56.531C23.598 56.4504 24.0642 56.295 24.5195 56.0878C23.193 54.0541 22.3225 51.7046 22.1455 49.2932C21.8059 44.5575 21.4671 39.9168 21.1297 35.3761C21.111 35.079 21.1103 34.7819 21.1269 34.4848C21.1679 33.7395 20.647 33.0726 19.9025 33.0108C18.4047 32.8863 16.9004 32.823 15.3955 32.823C11.4929 32.823 7.58738 33.2395 3.79033 34.0733C2.03648 34.4984 0.458841 36.6098 0.575415 38.4112L0.575474 38.4111Z" fill="white"/>
<path d="M54.5662 10.5678C54.5662 16.404 49.8349 21.1355 43.9984 21.1355C38.162 21.1355 33.4307 16.4042 33.4307 10.5678C33.4307 4.7313 38.162 0 43.9984 0C49.8349 0 54.5662 4.7313 54.5662 10.5678Z" fill="white"/>
<path d="M59.2146 29.0043C54.2465 27.913 49.128 27.3677 44.0061 27.3677C38.8756 27.3677 33.7406 27.9151 28.7487 29.0115C26.2078 29.6258 24.0174 32.563 24.1842 35.1651C24.5216 39.6936 24.8597 44.3372 25.1993 49.0722C25.5532 53.8763 29.5063 58.5464 33.8304 59.2687C40.5595 60.2442 47.4166 60.2442 54.1784 59.2666C58.4976 58.5364 62.4412 53.8704 62.7952 49.0701C63.1348 44.3373 63.4729 39.6936 63.811 35.1493C63.9793 32.5623 61.7874 29.6266 59.2141 29.0043L59.2146 29.0043Z" fill="white"/>
</svg>
