<svg width="66" height="60" viewBox="0 0 66 60" fill="none" xmlns="http://www.w3.org/2000/svg">
<path d="M64.9961 26.6305C64.9452 25.9184 64.5382 25.4097 63.877 25.1553C60.011 23.7819 57.1623 21.2384 55.1785 17.4233C53.9068 15.0326 53.2455 12.7943 53.0929 10.607C53.042 9.79306 53.042 8.97917 53.1438 8.16528C53.1946 7.60573 53.2964 7.09704 53.3981 6.53749C53.449 6.43576 53.449 6.33402 53.449 6.23228V5.77447C53.3981 5.21492 53.0929 4.7571 52.4825 4.40108C51.7703 3.99414 51.0582 3.53632 50.346 3.12932L49.9391 2.87498C48.8708 2.21369 47.6499 1.50159 46.5309 0.789318C45.6662 0.229767 44.8522 0.484108 44.4962 0.687581C44.3436 0.789318 44.1401 0.891054 43.9367 1.04366L43.7332 1.19626C43.0719 1.75582 42.3089 2.31537 41.495 2.77312C41.1389 2.9766 40.8337 3.1292 40.4776 3.23094C37.4764 4.29917 34.7294 4.75699 32.1861 4.60432C28.7271 4.40085 25.675 3.07827 22.8773 0.585787C21.9617 -0.228106 21.1478 -0.075501 20.4356 0.331445C18.5026 1.45055 16.4679 2.56965 14.3824 3.68875C13.9245 3.94309 13.6193 4.2483 13.4667 4.65525C13.4159 4.80785 13.365 4.90959 13.365 5.0622C13.3141 5.31654 13.365 5.57088 13.4159 5.87609C13.5176 6.63911 13.6193 7.35133 13.6193 8.06337V8.11423C13.6702 8.97899 13.6193 9.84376 13.5176 10.7085C13.4159 11.6241 13.2124 12.5397 12.9072 13.4045C11.8389 16.6092 9.6516 19.5087 6.2943 22.2048C6.03995 22.4083 5.73474 22.6118 5.37867 22.8152C4.56477 23.273 3.64914 23.5783 2.83525 23.8835H2.63178C2.37744 23.9343 2.17396 24.0361 2.02136 24.1378C1.56354 24.3921 1.3092 24.6974 1.1566 25.1552C1.10573 25.3078 1.05486 25.4095 1.05486 25.5621V25.613V25.8673V25.9691V27.0373C1.05486 27.6986 1.05486 28.3091 1.00399 28.9195V29.9877V30.1912C1.00399 31.0559 0.953125 31.8699 0.953125 32.7346V32.9381V33.2942C1.05486 34.0572 1.46181 34.5659 2.2757 34.871C5.73474 36.0409 8.37989 38.381 10.6181 42.1451C12.5003 45.3498 13.2123 48.5545 12.8054 51.9118C12.7545 52.4714 12.6528 53.0817 12.5002 53.6413C12.5002 53.6922 12.4493 53.794 12.4493 53.8448C12.3476 54.557 12.6528 55.1166 13.3649 55.5235C15.6541 56.9478 17.5869 58.1178 19.5709 59.2878C19.7743 59.3895 20.1304 59.593 20.5374 59.593C20.7917 59.593 21.0969 59.5421 21.3513 59.3895C21.5039 59.2878 21.7073 59.1352 21.8599 58.9826C22.5212 58.3213 23.2842 57.7617 24.1999 57.2531C26.845 55.7778 30.5075 55.1166 34.1191 55.4727C37.8326 55.8288 41.0372 57.2022 42.9194 59.237C43.2246 59.5931 43.6824 59.9491 44.2928 60H44.3945C44.8015 60 45.2084 59.8983 45.6663 59.5931C46.7345 58.9826 47.8028 58.3722 48.5149 58.0162C49.2271 57.6092 50.2952 57.0497 51.4145 56.4393C52.0249 56.0833 52.381 55.7272 52.5336 55.3202C52.5844 55.1676 52.6353 55.0659 52.6353 54.9133C52.6862 54.5572 52.6353 54.2011 52.5336 53.8959C52.4318 53.489 52.381 53.1329 52.2792 52.6751C52.2284 52.0138 52.1775 51.3017 52.2284 50.5894C52.2792 49.7755 52.4318 48.8599 52.6353 47.9952C52.9405 46.8253 53.3983 45.6045 53.9579 44.4344C55.5857 41.1789 58.0273 38.432 60.7234 36.9568C61.5882 36.4482 62.5547 36.0921 63.4703 35.8886C63.8773 35.7869 64.4368 35.5834 64.7421 34.973C64.7929 34.8712 64.8438 34.7186 64.8438 34.566C64.8438 34.5152 64.8947 34.4643 64.8947 34.3626C64.8947 34.2608 64.8947 34.1591 64.9455 34.0574C64.9455 33.4978 64.9964 32.9891 64.9964 32.4296C65.0473 30.5474 65.0473 28.6653 65.0473 26.8849C64.9964 26.834 64.9964 26.7323 64.9964 26.6305H64.9961ZM52.1773 32.5312C51.9738 34.159 51.516 35.7868 50.8547 37.3637C49.2269 41.2806 46.3273 44.6887 42.3597 46.9778C39.0532 48.7582 35.3907 49.5721 31.7282 49.3686C25.3696 48.9616 19.6221 45.5026 16.3666 40.0597C14.0774 36.1428 13.1619 31.7683 13.7214 27.4444C13.8232 26.6305 13.9758 25.8166 14.2301 25.0027C14.4844 24.0362 14.7896 23.1206 15.1966 22.2558C15.2983 22.0015 15.4509 21.6963 15.5527 21.442C15.5527 21.3911 15.6035 21.3911 15.6035 21.3402C17.3331 17.9321 20.0799 15.0835 23.5899 13.0996C26.8455 11.3192 30.4571 10.4544 34.0688 10.6579C35.544 10.7596 37.07 11.014 38.4943 11.4718C43.5302 12.9978 47.7015 16.5077 50.1434 21.2894C52.0764 24.8502 52.6868 28.767 52.1781 32.5314L52.1773 32.5312Z" fill="white"/>
<path d="M45.3614 22.1043C44.5984 22.206 43.4284 22.3586 41.7498 22.5112C40.8851 22.613 39.9186 22.7147 38.9522 22.8673C38.7995 22.6639 38.6469 22.5112 38.4435 22.3078C37.477 21.3413 36.307 20.5783 34.9335 20.0696C33.6109 19.5609 32.1358 19.3065 30.6096 19.3574C29.0836 19.4591 27.5575 19.8152 26.0823 20.5273C23.1828 21.9007 20.7411 24.6477 19.7237 28.0558C19.215 29.7345 19.0116 31.6166 19.215 33.4479C19.215 33.9057 19.3676 34.3635 19.4185 34.8213C19.4694 35.279 19.622 35.7369 19.7746 36.1946C20.0798 37.1103 20.4359 38.0259 20.9445 38.8398L20.4867 39.145C19.7236 38.0768 19.0624 36.9068 18.6045 35.5842C15.6541 27.9032 19.6219 19.2041 27.4556 16.2543C34.1702 13.7617 41.5964 16.356 45.3612 22.1041L45.3614 22.1043Z" fill="white"/>
<path d="M28.2189 29.785C28.0663 31.8197 29.338 33.6 31.3219 34.1088C32.5428 34.414 33.7127 34.1597 34.9845 33.3458C36.9175 32.074 46.4299 26.1225 47.0905 25.7156C47.3957 25.5121 47.5483 25.156 47.3957 24.7999C47.294 24.5456 47.0905 24.3421 46.7853 24.2913H46.5818C45.9206 24.393 33.1015 25.919 31.9318 26.0716C29.897 26.2242 28.371 27.7503 28.2183 29.785L28.2189 29.785Z" fill="white"/>
</svg>
