<svg width="54" height="60" viewBox="0 0 54 60" fill="none" xmlns="http://www.w3.org/2000/svg">
<path d="M53.1728 43.5496C53.201 45.0913 52.6121 46.5805 51.5364 47.6851C50.4601 48.7901 48.9875 49.4189 47.4454 49.4314C45.9037 49.4439 44.4208 48.8393 43.3267 47.7521L29.3976 32.7723L29.3981 32.7728C30.1844 32.1875 30.9266 31.5452 31.6192 30.8516C32.6991 29.8915 33.7216 28.8692 34.6811 27.7892C35.3925 27.0856 36.0547 26.3334 36.6624 25.5382L51.3112 39.4673V39.4668C52.4781 40.5054 53.1539 41.9874 53.1722 43.5495L53.1728 43.5496ZM14.6928 38.5064C15.5418 39.3523 16.6914 39.8271 17.8896 39.8271C19.0878 39.8271 20.2375 39.3523 21.0864 38.5064L21.867 37.696C22.9181 36.6663 23.3803 35.1775 23.0977 33.7338C24.5869 32.7785 26.0108 31.7253 27.3604 30.5815C28.1457 29.9721 28.8974 29.3209 29.6119 28.6304C30.6327 27.6997 31.5933 26.7391 32.5236 25.7187C33.2141 25.0037 33.8659 24.2525 34.4751 23.4672C35.6116 22.112 36.6643 20.6886 37.627 19.2044C37.893 19.2641 38.1646 19.2945 38.4374 19.2945C39.6294 19.2851 40.7711 18.8113 41.6196 17.9737L42.4001 17.1634H42.3996C43.2498 16.3227 43.7282 15.1768 43.7282 13.9812C43.7282 12.786 43.2498 11.6401 42.3996 10.7995L32.8837 1.28357C32.0294 0.460142 30.8887 0 29.702 0C28.5153 0 27.3747 0.460142 26.5198 1.28357L25.7094 2.09393C24.8651 2.93778 24.3897 4.08212 24.3887 5.27562C24.3877 5.66352 24.4484 6.04828 24.5688 6.41681C18.9037 10.1603 14.0541 15.0103 10.31 20.6756C8.76884 20.2631 7.12412 20.6971 5.98703 21.8163L5.17668 22.6266C4.34016 23.4747 3.87059 24.6174 3.87059 25.8089C3.87059 26.9998 4.34016 28.1431 5.17668 28.9906L14.6928 38.5064ZM26.235 52.8764H3.82833C3.03211 52.8764 2.26884 53.1926 1.70559 53.7553C1.14285 54.3186 0.82666 55.0818 0.82666 55.8781V58.4987C0.82666 58.897 0.984754 59.2786 1.26638 59.5603C1.54749 59.8419 1.92963 60 2.32748 60H27.732C28.1304 60 28.512 59.8419 28.7936 59.5603C29.0748 59.2786 29.2328 58.897 29.2328 58.4987V55.8781C29.2328 55.0818 28.9166 54.3186 28.3539 53.7553C27.7906 53.1926 27.0274 52.8764 26.2312 52.8764H26.235ZM7.46138 45.0085C6.66516 45.0085 5.90135 45.3246 5.33863 45.8879C4.77589 46.4506 4.45918 47.2144 4.45918 48.0101V49.8863H25.6008L25.6013 48.0101C25.6013 47.2144 25.2852 46.4506 24.7219 45.8879C24.1591 45.3246 23.3954 45.0085 22.5991 45.0085H7.46138Z" fill="white"/>
</svg>
