<svg width="62" height="60" viewBox="0 0 62 60" fill="none" xmlns="http://www.w3.org/2000/svg">
<path d="M60.9359 18.764C60.8343 19.1118 60.6255 19.4188 60.3392 19.6406C60.0529 19.8623 59.7033 19.9876 59.3412 19.9988H2.6579C2.19377 19.948 1.77053 19.7107 1.48548 19.3409C1.20046 18.9715 1.07861 18.5017 1.14793 18.0402C1.21682 17.5786 1.47127 17.1653 1.85188 16.8953L30.1423 0.22991C30.4027 0.0792157 30.6985 0 30.9995 0C31.3004 0 31.5962 0.0792212 31.8567 0.22991L60.1471 16.8953C60.4601 17.0822 60.7055 17.3646 60.8472 17.7004C60.9893 18.0367 61.0202 18.4091 60.9359 18.7639L60.9359 18.764Z" fill="white"/>
<path d="M10.9904 23.325H17.6601C18.5784 23.325 19.3233 24.2433 19.3233 24.9882V44.9977C19.3233 45.916 18.5789 46.6609 17.6601 46.6609H10.9904C10.072 46.6609 9.32715 45.7426 9.32715 44.9977V24.9882C9.32715 24.0698 10.0716 23.325 10.9904 23.325Z" fill="white"/>
<path d="M27.6569 23.325H34.3266C35.2449 23.325 35.9898 24.2433 35.9898 24.9882V44.9977C35.9898 45.916 35.2454 46.6609 34.3266 46.6609H27.6569C26.7385 46.6609 25.9937 45.7426 25.9937 44.9977V24.9882C25.9937 24.0698 26.7381 23.325 27.6569 23.325Z" fill="white"/>
<path d="M44.3385 23.325H51.0082C51.9266 23.325 52.6714 24.2433 52.6714 24.9882V44.9977C52.6714 45.916 51.927 46.6609 51.0082 46.6609H44.3385C43.4202 46.6609 42.6753 45.7426 42.6753 44.9977V24.9882C42.6753 24.0698 43.4197 23.325 44.3385 23.325Z" fill="white"/>
<path d="M2.65835 50.0039H59.3416C60.26 50.0039 61.0049 50.9223 61.0049 51.6671V58.3368C61.0049 59.2552 60.2604 60.0001 59.3416 60.0001H2.65835C1.73999 60.0001 0.995117 59.0817 0.995117 58.3368V51.6671C0.995117 50.7488 1.73954 50.0039 2.65835 50.0039Z" fill="white"/>
</svg>
